<svg width="238" height="41" viewBox="0 0 238 41" fill="none" xmlns="http://www.w3.org/2000/svg">
<path d="M36.4 40.05C35.6667 40.05 35.05 39.8167 34.55 39.35C34.0833 38.85 33.85 38.2333 33.85 37.5V23.2C33.85 21.1 33.3333 19.55 32.3 18.55C31.2667 17.5167 29.9167 17 28.25 17C26.5167 17 25.0833 17.6 23.95 18.8C22.85 20 22.3 21.5333 22.3 23.4H18.15C18.15 21.2333 18.6167 19.3333 19.55 17.7C20.4833 16.0333 21.7833 14.7333 23.45 13.8C25.15 12.8667 27.0833 12.4 29.25 12.4C31.15 12.4 32.8333 12.8167 34.3 13.65C35.7667 14.4833 36.9 15.7167 37.7 17.35C38.5333 18.95 38.95 20.9 38.95 23.2V37.5C38.95 38.2333 38.7167 38.85 38.25 39.35C37.7833 39.8167 37.1667 40.05 36.4 40.05ZM3.05 40.05C2.31667 40.05 1.7 39.8167 1.2 39.35C0.733333 38.85 0.5 38.2333 0.5 37.5V15.25C0.5 14.4833 0.733333 13.8667 1.2 13.4C1.7 12.9333 2.31667 12.7 3.05 12.7C3.81667 12.7 4.43333 12.9333 4.9 13.4C5.36667 13.8667 5.6 14.4833 5.6 15.25V37.5C5.6 38.2333 5.36667 38.85 4.9 39.35C4.43333 39.8167 3.81667 40.05 3.05 40.05ZM19.75 40.05C19.0167 40.05 18.4 39.8167 17.9 39.35C17.4333 38.85 17.2 38.2333 17.2 37.5V23.2C17.2 21.1 16.6833 19.55 15.65 18.55C14.6167 17.5167 13.2667 17 11.6 17C9.86667 17 8.43333 17.6 7.3 18.8C6.16667 20 5.6 21.5333 5.6 23.4H2.45C2.45 21.2333 2.88333 19.3333 3.75 17.7C4.61667 16.0333 5.81667 14.7333 7.35 13.8C8.88333 12.8667 10.6333 12.4 12.6 12.4C14.5 12.4 16.1833 12.8167 17.65 13.65C19.1167 14.4833 20.25 15.7167 21.05 17.35C21.8833 18.95 22.3 20.9 22.3 23.2V37.5C22.3 38.2333 22.0667 38.85 21.6 39.35C21.1333 39.8167 20.5167 40.05 19.75 40.05ZM50.4738 40C49.7405 40 49.1238 39.7667 48.6238 39.3C48.1572 38.8 47.9238 38.1833 47.9238 37.45V15.2C47.9238 14.4333 48.1572 13.8167 48.6238 13.35C49.1238 12.8833 49.7405 12.65 50.4738 12.65C51.2405 12.65 51.8572 12.8833 52.3238 13.35C52.7905 13.8167 53.0238 14.4333 53.0238 15.2V37.45C53.0238 38.1833 52.7905 38.8 52.3238 39.3C51.8572 39.7667 51.2405 40 50.4738 40ZM50.4738 8.2C49.5738 8.2 48.7905 7.88333 48.1238 7.25C47.4905 6.58333 47.1738 5.8 47.1738 4.9C47.1738 4 47.4905 3.23333 48.1238 2.6C48.7905 1.93333 49.5738 1.6 50.4738 1.6C51.3738 1.6 52.1405 1.93333 52.7738 2.6C53.4405 3.23333 53.7738 4 53.7738 4.9C53.7738 5.8 53.4405 6.58333 52.7738 7.25C52.1405 7.88333 51.3738 8.2 50.4738 8.2ZM85.6117 40.05C84.8784 40.05 84.2617 39.8167 83.7617 39.35C83.2951 38.85 83.0617 38.2333 83.0617 37.5V25.2C83.0617 23.3 82.7117 21.75 82.0117 20.55C81.3117 19.35 80.3617 18.4667 79.1617 17.9C77.9951 17.3 76.6451 17 75.1117 17C73.7117 17 72.4451 17.2833 71.3117 17.85C70.1784 18.4167 69.2784 19.1833 68.6117 20.15C67.9451 21.0833 67.6117 22.1667 67.6117 23.4H64.4617C64.4617 21.3 64.9617 19.4333 65.9617 17.8C66.9951 16.1333 68.3951 14.8167 70.1617 13.85C71.9284 12.8833 73.9117 12.4 76.1117 12.4C78.4117 12.4 80.4617 12.9 82.2617 13.9C84.0951 14.8667 85.5284 16.3 86.5617 18.2C87.6284 20.1 88.1617 22.4333 88.1617 25.2V37.5C88.1617 38.2333 87.9117 38.85 87.4117 39.35C86.9451 39.8167 86.3451 40.05 85.6117 40.05ZM65.0617 40.05C64.3284 40.05 63.7117 39.8167 63.2117 39.35C62.7451 38.85 62.5117 38.2333 62.5117 37.5V15.2C62.5117 14.4333 62.7451 13.8167 63.2117 13.35C63.7117 12.8833 64.3284 12.65 65.0617 12.65C65.8284 12.65 66.4451 12.8833 66.9117 13.35C67.3784 13.8167 67.6117 14.4333 67.6117 15.2V37.5C67.6117 38.2333 67.3784 38.85 66.9117 39.35C66.4451 39.8167 65.8284 40.05 65.0617 40.05ZM108.994 40.2C106.394 40.2 104.044 39.6 101.944 38.4C99.8771 37.1667 98.2271 35.5 96.9938 33.4C95.7938 31.3 95.1938 28.9333 95.1938 26.3C95.1938 23.6667 95.7438 21.3167 96.8438 19.25C97.9771 17.15 99.5104 15.5 101.444 14.3C103.377 13.0667 105.56 12.45 107.994 12.45C109.96 12.45 111.777 12.8667 113.444 13.7C115.11 14.5 116.51 15.6 117.644 17V3.5C117.644 2.73333 117.877 2.11667 118.344 1.65C118.844 1.18333 119.46 0.949999 120.194 0.949999C120.96 0.949999 121.577 1.18333 122.044 1.65C122.51 2.11667 122.744 2.73333 122.744 3.5V26.3C122.744 28.9333 122.127 31.3 120.894 33.4C119.694 35.5 118.06 37.1667 115.994 38.4C113.927 39.6 111.594 40.2 108.994 40.2ZM108.994 35.7C110.694 35.7 112.21 35.3 113.544 34.5C114.877 33.6667 115.927 32.5333 116.694 31.1C117.46 29.6667 117.844 28.0667 117.844 26.3C117.844 24.5 117.46 22.9 116.694 21.5C115.927 20.1 114.877 19 113.544 18.2C112.21 17.3667 110.694 16.95 108.994 16.95C107.327 16.95 105.81 17.3667 104.444 18.2C103.11 19 102.044 20.1 101.244 21.5C100.477 22.9 100.094 24.5 100.094 26.3C100.094 28.0667 100.477 29.6667 101.244 31.1C102.044 32.5333 103.11 33.6667 104.444 34.5C105.81 35.3 107.327 35.7 108.994 35.7ZM134.7 40C134.067 40 133.5 39.7667 133 39.3C132.5 38.8333 132.25 38.2167 132.25 37.45V12.8C132.25 10.4 132.717 8.31666 133.65 6.55C134.617 4.78333 135.95 3.41666 137.65 2.45C139.35 1.45 141.317 0.949999 143.55 0.949999C144.283 0.949999 144.883 1.16667 145.35 1.6C145.85 2.03333 146.1 2.58333 146.1 3.25C146.1 3.88333 145.85 4.43333 145.35 4.9C144.883 5.33333 144.283 5.55 143.55 5.55C142.317 5.55 141.233 5.83333 140.3 6.4C139.367 6.96666 138.633 7.75 138.1 8.75C137.6 9.75 137.35 10.9333 137.35 12.3V37.45C137.35 38.2167 137.117 38.8333 136.65 39.3C136.183 39.7667 135.533 40 134.7 40ZM130.1 17.95C129.4 17.95 128.833 17.75 128.4 17.35C127.967 16.95 127.75 16.45 127.75 15.85C127.75 15.1833 127.967 14.65 128.4 14.25C128.833 13.85 129.4 13.65 130.1 13.65H142.45C143.15 13.65 143.717 13.85 144.15 14.25C144.583 14.65 144.8 15.1833 144.8 15.85C144.8 16.45 144.583 16.95 144.15 17.35C143.717 17.75 143.15 17.95 142.45 17.95H130.1ZM161.609 40.25C159.309 40.25 157.243 39.7667 155.409 38.8C153.609 37.8 152.176 36.35 151.109 34.45C150.076 32.55 149.559 30.2167 149.559 27.45V15.15C149.559 14.4167 149.793 13.8167 150.259 13.35C150.759 12.85 151.376 12.6 152.109 12.6C152.843 12.6 153.443 12.85 153.909 13.35C154.409 13.8167 154.659 14.4167 154.659 15.15V27.45C154.659 29.3167 155.009 30.8667 155.709 32.1C156.409 33.3 157.359 34.2 158.559 34.8C159.759 35.3667 161.109 35.65 162.609 35.65C164.043 35.65 165.309 35.3667 166.409 34.8C167.543 34.2333 168.443 33.4667 169.109 32.5C169.776 31.5333 170.109 30.45 170.109 29.25H173.259C173.259 31.3167 172.743 33.1833 171.709 34.85C170.709 36.5167 169.326 37.8333 167.559 38.8C165.826 39.7667 163.843 40.25 161.609 40.25ZM172.659 40C171.926 40 171.309 39.7667 170.809 39.3C170.343 38.8 170.109 38.1833 170.109 37.45V15.15C170.109 14.3833 170.343 13.7667 170.809 13.3C171.309 12.8333 171.926 12.6 172.659 12.6C173.426 12.6 174.043 12.8333 174.509 13.3C174.976 13.7667 175.209 14.3833 175.209 15.15V37.45C175.209 38.1833 174.976 38.8 174.509 39.3C174.043 39.7667 173.426 40 172.659 40ZM190.691 40C189.225 40 187.925 39.6 186.791 38.8C185.658 38 184.775 36.9167 184.141 35.55C183.508 34.15 183.191 32.55 183.191 30.75V3.45C183.191 2.71667 183.425 2.11667 183.891 1.65C184.358 1.18333 184.958 0.949999 185.691 0.949999C186.425 0.949999 187.025 1.18333 187.491 1.65C187.958 2.11667 188.191 2.71667 188.191 3.45V30.75C188.191 31.9833 188.425 33 188.891 33.8C189.358 34.6 189.958 35 190.691 35H191.941C192.608 35 193.141 35.2333 193.541 35.7C193.975 36.1667 194.191 36.7667 194.191 37.5C194.191 38.2333 193.875 38.8333 193.241 39.3C192.608 39.7667 191.791 40 190.791 40H190.691ZM231.382 39.2L220.932 28.75C220.398 28.2167 220.132 27.6333 220.132 27C220.132 26.3333 220.398 25.7333 220.932 25.2C221.465 24.6667 222.048 24.4 222.682 24.4C223.348 24.4 223.948 24.6667 224.482 25.2L234.932 35.7C235.432 36.2333 235.682 36.8167 235.682 37.45C235.715 38.0833 235.465 38.6667 234.932 39.2C234.398 39.7333 233.798 40 233.132 40C232.498 40 231.915 39.7333 231.382 39.2ZM217.732 40.5C214.798 40.5 212.115 40.0167 209.682 39.05C207.248 38.05 205.148 36.6667 203.382 34.9C201.648 33.1 200.298 30.9833 199.332 28.55C198.365 26.0833 197.882 23.3833 197.882 20.45C197.882 17.5167 198.365 14.8333 199.332 12.4C200.298 9.96667 201.648 7.86667 203.382 6.1C205.148 4.3 207.248 2.91666 209.682 1.95C212.115 0.949999 214.798 0.45 217.732 0.45C220.665 0.45 223.332 0.949999 225.732 1.95C228.165 2.91666 230.265 4.3 232.032 6.1C233.798 7.86667 235.165 9.96667 236.132 12.4C237.098 14.8333 237.582 17.5167 237.582 20.45C237.582 23.3833 237.098 26.0833 236.132 28.55C235.165 30.9833 233.798 33.1 232.032 34.9C230.265 36.6667 228.165 38.05 225.732 39.05C223.332 40.0167 220.665 40.5 217.732 40.5ZM217.732 35.8C219.898 35.8 221.882 35.4167 223.682 34.65C225.515 33.85 227.098 32.7667 228.432 31.4C229.765 30 230.782 28.3667 231.482 26.5C232.215 24.6333 232.582 22.6167 232.582 20.45C232.582 18.2833 232.215 16.2667 231.482 14.4C230.782 12.5333 229.765 10.9167 228.432 9.55C227.098 8.15 225.515 7.06667 223.682 6.3C221.882 5.53333 219.898 5.15 217.732 5.15C215.565 5.15 213.565 5.53333 211.732 6.3C209.932 7.06667 208.365 8.15 207.032 9.55C205.732 10.9167 204.715 12.5333 203.982 14.4C203.248 16.2667 202.882 18.2833 202.882 20.45C202.882 22.6167 203.248 24.6333 203.982 26.5C204.715 28.3667 205.732 30 207.032 31.4C208.365 32.7667 209.932 33.85 211.732 34.65C213.565 35.4167 215.565 35.8 217.732 35.8Z" fill="black"/>
<path d="M34.55 39.35L34.1114 39.7594L34.1255 39.7745L34.1406 39.7886L34.55 39.35ZM32.3 18.55L31.8757 18.9743L31.8827 18.9812L32.3 18.55ZM23.95 18.8L23.5137 18.388L23.5077 18.3946L23.95 18.8ZM22.3 23.4V24H22.9V23.4H22.3ZM18.15 23.4H17.55V24H18.15V23.4ZM19.55 17.7L20.071 17.9977L20.0735 17.9932L19.55 17.7ZM23.45 13.8L23.1612 13.274L23.1568 13.2765L23.45 13.8ZM34.3 13.65L34.0036 14.1717L34.0036 14.1717L34.3 13.65ZM37.7 17.35L37.1612 17.6139L37.1644 17.6206L37.1679 17.6272L37.7 17.35ZM38.25 39.35L38.6743 39.7743L38.6816 39.767L38.6886 39.7594L38.25 39.35ZM1.2 39.35L0.761367 39.7594L0.775484 39.7745L0.790609 39.7886L1.2 39.35ZM1.2 13.4L0.790609 12.9614L0.783049 12.9684L0.775736 12.9757L1.2 13.4ZM4.9 39.35L5.32426 39.7743L5.33158 39.767L5.33863 39.7594L4.9 39.35ZM17.9 39.35L17.4614 39.7594L17.4755 39.7745L17.4906 39.7886L17.9 39.35ZM15.65 18.55L15.2257 18.9743L15.2327 18.9812L15.65 18.55ZM7.3 18.8L6.86379 18.388L6.86379 18.388L7.3 18.8ZM5.6 23.4V24H6.2V23.4H5.6ZM2.45 23.4H1.85V24H2.45V23.4ZM3.75 17.7L4.28003 17.9812L4.28233 17.9768L3.75 17.7ZM7.35 13.8L7.03803 13.2875L7.03803 13.2875L7.35 13.8ZM17.65 13.65L17.3536 14.1717L17.3536 14.1717L17.65 13.65ZM21.05 17.35L20.5112 17.6139L20.5144 17.6206L20.5179 17.6272L21.05 17.35ZM21.6 39.35L22.0243 39.7743L22.0316 39.767L22.0386 39.7594L21.6 39.35ZM36.4 39.45C35.8066 39.45 35.3398 39.2664 34.9594 38.9114L34.1406 39.7886C34.7602 40.3669 35.5267 40.65 36.4 40.65V39.45ZM34.9886 38.9406C34.6336 38.5602 34.45 38.0934 34.45 37.5H33.25C33.25 38.3733 33.5331 39.1398 34.1114 39.7594L34.9886 38.9406ZM34.45 37.5V23.2H33.25V37.5H34.45ZM34.45 23.2C34.45 21.0126 33.9121 19.2752 32.7173 18.1188L31.8827 18.9812C32.7545 19.8248 33.25 21.1874 33.25 23.2H34.45ZM32.7243 18.1257C31.5623 16.9638 30.0515 16.4 28.25 16.4V17.6C29.7818 17.6 30.971 18.0695 31.8757 18.9743L32.7243 18.1257ZM28.25 16.4C26.3609 16.4 24.7667 17.0614 23.5138 18.388L24.3862 19.212C25.4 18.1386 26.6725 17.6 28.25 17.6V16.4ZM23.5077 18.3946C22.2914 19.7215 21.7 21.4068 21.7 23.4H22.9C22.9 21.6599 23.4086 20.2785 24.3923 19.2054L23.5077 18.3946ZM22.3 22.8H18.15V24H22.3V22.8ZM18.75 23.4C18.75 21.3217 19.1968 19.5274 20.0709 17.9977L19.0291 17.4023C18.0365 19.1393 17.55 21.145 17.55 23.4H18.75ZM20.0735 17.9932C20.9528 16.423 22.173 15.2028 23.7432 14.3235L23.1568 13.2765C21.3936 14.2639 20.0139 15.6436 19.0265 17.4068L20.0735 17.9932ZM23.7388 14.3259C25.3403 13.4467 27.1722 13 29.25 13V11.8C26.9944 11.8 24.9597 12.2866 23.1612 13.2741L23.7388 14.3259ZM29.25 13C31.0595 13 32.6382 13.3959 34.0036 14.1717L34.5964 13.1283C33.0284 12.2374 31.2405 11.8 29.25 11.8V13ZM34.0036 14.1717C35.3571 14.9407 36.4099 16.08 37.1612 17.6139L38.2388 17.0861C37.3901 15.3533 36.1762 14.026 34.5964 13.1283L34.0036 14.1717ZM37.1679 17.6272C37.946 19.1213 38.35 20.9707 38.35 23.2H39.55C39.55 20.8293 39.1206 18.7787 38.2322 17.0728L37.1679 17.6272ZM38.35 23.2V37.5H39.55V23.2H38.35ZM38.35 37.5C38.35 38.0934 38.1664 38.5602 37.8114 38.9406L38.6886 39.7594C39.2669 39.1398 39.55 38.3733 39.55 37.5H38.35ZM37.8257 38.9257C37.4898 39.2616 37.0354 39.45 36.4 39.45V40.65C37.298 40.65 38.0768 40.3717 38.6743 39.7743L37.8257 38.9257ZM3.05 39.45C2.45663 39.45 1.9898 39.2664 1.60939 38.9114L0.790609 39.7886C1.4102 40.3669 2.17671 40.65 3.05 40.65V39.45ZM1.63863 38.9406C1.28358 38.5602 1.1 38.0934 1.1 37.5H-0.0999998C-0.0999998 38.3733 0.183086 39.1398 0.761367 39.7594L1.63863 38.9406ZM1.1 37.5V15.25H-0.0999998V37.5H1.1ZM1.1 15.25C1.1 14.6146 1.28837 14.1602 1.62426 13.8243L0.775736 12.9757C0.178297 13.5732 -0.0999998 14.352 -0.0999998 15.25H1.1ZM1.60939 13.8386C1.9898 13.4836 2.45663 13.3 3.05 13.3V12.1C2.17671 12.1 1.4102 12.3831 0.790609 12.9614L1.60939 13.8386ZM3.05 13.3C3.68535 13.3 4.13984 13.4884 4.47574 13.8243L5.32426 12.9757C4.72683 12.3783 3.94798 12.1 3.05 12.1V13.3ZM4.47574 13.8243C4.81163 14.1602 5 14.6146 5 15.25H6.2C6.2 14.352 5.9217 13.5732 5.32426 12.9757L4.47574 13.8243ZM5 15.25V37.5H6.2V15.25H5ZM5 37.5C5 38.0934 4.81642 38.5602 4.46137 38.9406L5.33863 39.7594C5.91691 39.1398 6.2 38.3733 6.2 37.5H5ZM4.47574 38.9257C4.13984 39.2616 3.68535 39.45 3.05 39.45V40.65C3.94798 40.65 4.72683 40.3717 5.32426 39.7743L4.47574 38.9257ZM19.75 39.45C19.1566 39.45 18.6898 39.2664 18.3094 38.9114L17.4906 39.7886C18.1102 40.3669 18.8767 40.65 19.75 40.65V39.45ZM18.3386 38.9406C17.9836 38.5602 17.8 38.0934 17.8 37.5H16.6C16.6 38.3733 16.8831 39.1398 17.4614 39.7594L18.3386 38.9406ZM17.8 37.5V23.2H16.6V37.5H17.8ZM17.8 23.2C17.8 21.0126 17.2621 19.2752 16.0673 18.1188L15.2327 18.9812C16.1045 19.8248 16.6 21.1874 16.6 23.2H17.8ZM16.0743 18.1257C14.9123 16.9638 13.4015 16.4 11.6 16.4V17.6C13.1318 17.6 14.321 18.0695 15.2257 18.9743L16.0743 18.1257ZM11.6 16.4C9.71088 16.4 8.1167 17.0614 6.86379 18.388L7.73621 19.212C8.74997 18.1386 10.0225 17.6 11.6 17.6V16.4ZM6.86379 18.388C5.61128 19.7142 5 21.4018 5 23.4H6.2C6.2 21.6649 6.72206 20.2858 7.73621 19.212L6.86379 18.388ZM5.6 22.8H2.45V24H5.6V22.8ZM3.05 23.4C3.05 21.3145 3.46661 19.5142 4.28001 17.9812L3.21999 17.4188C2.30006 19.1525 1.85 21.1521 1.85 23.4H3.05ZM4.28233 17.9768C5.1009 16.4026 6.22668 15.1862 7.66197 14.3125L7.03803 13.2875C5.40665 14.2805 4.13243 15.664 3.21767 17.4232L4.28233 17.9768ZM7.66197 14.3125C9.09243 13.4418 10.7325 13 12.6 13V11.8C10.5342 11.8 8.67424 12.2915 7.03803 13.2875L7.66197 14.3125ZM12.6 13C14.4095 13 15.9882 13.3959 17.3536 14.1717L17.9464 13.1283C16.3784 12.2374 14.5905 11.8 12.6 11.8V13ZM17.3536 14.1717C18.7071 14.9407 19.7599 16.08 20.5112 17.6139L21.5888 17.0861C20.7401 15.3533 19.5262 14.026 17.9464 13.1283L17.3536 14.1717ZM20.5179 17.6272C21.296 19.1213 21.7 20.9707 21.7 23.2H22.9C22.9 20.8293 22.4706 18.7787 21.5822 17.0728L20.5179 17.6272ZM21.7 23.2V37.5H22.9V23.2H21.7ZM21.7 37.5C21.7 38.0934 21.5164 38.5602 21.1614 38.9406L22.0386 39.7594C22.6169 39.1398 22.9 38.3733 22.9 37.5H21.7ZM21.1757 38.9257C20.8398 39.2616 20.3854 39.45 19.75 39.45V40.65C20.648 40.65 21.4268 40.3717 22.0243 39.7743L21.1757 38.9257ZM48.6238 39.3L48.1852 39.7094L48.1993 39.7245L48.2144 39.7386L48.6238 39.3ZM48.6238 13.35L48.2144 12.9114L48.2069 12.9184L48.1996 12.9257L48.6238 13.35ZM52.3238 39.3L52.7481 39.7243L52.7554 39.717L52.7625 39.7094L52.3238 39.3ZM48.1238 7.25L47.6888 7.66325L47.6994 7.6744L47.7106 7.685L48.1238 7.25ZM48.1238 2.6L47.6996 2.17573L47.6996 2.17573L48.1238 2.6ZM52.7738 2.6L52.3388 3.01325L52.3494 3.0244L52.3606 3.035L52.7738 2.6ZM52.7738 7.25L53.1981 7.67426L52.7738 7.25ZM50.4738 39.4C49.8805 39.4 49.4136 39.2164 49.0332 38.8614L48.2144 39.7386C48.834 40.3169 49.6005 40.6 50.4738 40.6V39.4ZM49.0625 38.8906C48.7074 38.5102 48.5238 38.0434 48.5238 37.45H47.3238C47.3238 38.3233 47.6069 39.0898 48.1852 39.7094L49.0625 38.8906ZM48.5238 37.45V15.2H47.3238V37.45H48.5238ZM48.5238 15.2C48.5238 14.5646 48.7122 14.1102 49.0481 13.7743L48.1996 12.9257C47.6021 13.5232 47.3238 14.302 47.3238 15.2H48.5238ZM49.0332 13.7886C49.4136 13.4336 49.8805 13.25 50.4738 13.25V12.05C49.6005 12.05 48.834 12.3331 48.2144 12.9114L49.0332 13.7886ZM50.4738 13.25C51.1092 13.25 51.5637 13.4384 51.8996 13.7743L52.7481 12.9257C52.1507 12.3283 51.3718 12.05 50.4738 12.05V13.25ZM51.8996 13.7743C52.2355 14.1102 52.4238 14.5646 52.4238 15.2H53.6238C53.6238 14.302 53.3455 13.5232 52.7481 12.9257L51.8996 13.7743ZM52.4238 15.2V37.45H53.6238V15.2H52.4238ZM52.4238 37.45C52.4238 38.0434 52.2402 38.5102 51.8852 38.8906L52.7625 39.7094C53.3407 39.0898 53.6238 38.3233 53.6238 37.45H52.4238ZM51.8996 38.8757C51.5637 39.2116 51.1092 39.4 50.4738 39.4V40.6C51.3718 40.6 52.1507 40.3217 52.7481 39.7243L51.8996 38.8757ZM50.4738 7.6C49.7313 7.6 49.0949 7.34496 48.5371 6.815L47.7106 7.685C48.4861 8.42171 49.4163 8.8 50.4738 8.8V7.6ZM48.5588 6.83675C48.0289 6.2789 47.7738 5.64252 47.7738 4.9H46.5738C46.5738 5.95748 46.9521 6.88776 47.6888 7.66325L48.5588 6.83675ZM47.7738 4.9C47.7738 4.15826 48.0279 3.54446 48.5481 3.02426L47.6996 2.17573C46.9531 2.9222 46.5738 3.84173 46.5738 4.9H47.7738ZM48.5481 3.02426C49.1082 2.46416 49.7412 2.2 50.4738 2.2V1C49.4065 1 48.4728 1.40251 47.6996 2.17573L48.5481 3.02426ZM50.4738 2.2C51.2054 2.2 51.816 2.4629 52.3388 3.01325L53.2088 2.18675C52.465 1.40377 51.5423 1 50.4738 1V2.2ZM52.3606 3.035C52.9109 3.55783 53.1738 4.16846 53.1738 4.9H54.3738C54.3738 3.83154 53.9701 2.90883 53.1871 2.165L52.3606 3.035ZM53.1738 4.9C53.1738 5.63263 52.9097 6.26563 52.3496 6.82573L53.1981 7.67426C53.9713 6.90103 54.3738 5.96736 54.3738 4.9H53.1738ZM52.3496 6.82573C51.8294 7.34593 51.2156 7.6 50.4738 7.6V8.8C51.5321 8.8 52.4516 8.42073 53.1981 7.67426L52.3496 6.82573ZM83.7617 39.35L83.3231 39.7594L83.3372 39.7745L83.3523 39.7886L83.7617 39.35ZM82.0117 20.55L81.4935 20.8523L81.4935 20.8523L82.0117 20.55ZM79.1617 17.9L78.8873 18.4336L78.8963 18.4382L78.9055 18.4425L79.1617 17.9ZM71.3117 17.85L71.0434 17.3133L71.0434 17.3133L71.3117 17.85ZM68.6117 20.15L69.1 20.4988L69.1056 20.4906L68.6117 20.15ZM67.6117 23.4V24H68.2117V23.4H67.6117ZM64.4617 23.4H63.8617V24H64.4617V23.4ZM65.9617 17.8L65.4518 17.4838L65.45 17.4867L65.9617 17.8ZM70.1617 13.85L70.4497 14.3764L70.4497 14.3764L70.1617 13.85ZM82.2617 13.9L81.9703 14.4246L81.9819 14.4307L82.2617 13.9ZM86.5617 18.2L86.0346 18.4867L86.0385 18.4937L86.5617 18.2ZM87.4117 39.35L86.9875 38.9257L86.9875 38.9257L87.4117 39.35ZM63.2117 39.35L62.7731 39.7594L62.7872 39.7745L62.8023 39.7886L63.2117 39.35ZM63.2117 13.35L62.8023 12.9114L62.7948 12.9184L62.7875 12.9257L63.2117 13.35ZM66.9117 39.35L67.336 39.7743L67.3433 39.767L67.3504 39.7594L66.9117 39.35ZM85.6117 39.45C85.0183 39.45 84.5515 39.2664 84.1711 38.9114L83.3523 39.7886C83.9719 40.3669 84.7384 40.65 85.6117 40.65V39.45ZM84.2004 38.9406C83.8453 38.5602 83.6617 38.0934 83.6617 37.5H82.4617C82.4617 38.3733 82.7448 39.1398 83.3231 39.7594L84.2004 38.9406ZM83.6617 37.5V25.2H82.4617V37.5H83.6617ZM83.6617 25.2C83.6617 23.2312 83.2997 21.5671 82.53 20.2477L81.4935 20.8523C82.1238 21.9329 82.4617 23.3688 82.4617 25.2H83.6617ZM82.53 20.2477C81.7719 18.9482 80.7329 17.9784 79.4179 17.3574L78.9055 18.4425C79.9906 18.9549 80.8515 19.7518 81.4935 20.8523L82.53 20.2477ZM79.4361 17.3664C78.1713 16.716 76.7244 16.4 75.1117 16.4V17.6C76.5657 17.6 77.8188 17.884 78.8873 18.4336L79.4361 17.3664ZM75.1117 16.4C73.6285 16.4 72.2685 16.7008 71.0434 17.3133L71.58 18.3867C72.6216 17.8659 73.795 17.6 75.1117 17.6V16.4ZM71.0434 17.3133C69.8269 17.9216 68.8464 18.7528 68.1178 19.8094L69.1056 20.4906C69.7104 19.6138 70.5299 18.9117 71.58 18.3867L71.0434 17.3133ZM68.1235 19.8013C67.3786 20.8442 67.0117 22.0516 67.0117 23.4H68.2117C68.2117 22.2818 68.5116 21.3225 69.1 20.4987L68.1235 19.8013ZM67.6117 22.8H64.4617V24H67.6117V22.8ZM65.0617 23.4C65.0617 21.3995 65.5367 19.6433 66.4734 18.1133L65.45 17.4867C64.3868 19.2233 63.8617 21.2005 63.8617 23.4H65.0617ZM66.4717 18.1162C67.4489 16.54 68.7714 15.2947 70.4497 14.3764L69.8737 13.3236C68.0187 14.3386 66.5412 15.7267 65.4518 17.4838L66.4717 18.1162ZM70.4497 14.3764C72.1201 13.4624 74.0028 13 76.1117 13V11.8C73.8206 11.8 71.7367 12.3043 69.8737 13.3236L70.4497 14.3764ZM76.1117 13C78.3219 13 80.2695 13.4796 81.9703 14.4245L82.5531 13.3755C80.6539 12.3204 78.5015 11.8 76.1117 11.8V13ZM81.9819 14.4307C83.7058 15.3397 85.0552 16.6858 86.0346 18.4867L87.0888 17.9133C86.0015 15.9142 84.4843 14.3936 82.5416 13.3693L81.9819 14.4307ZM86.0385 18.4937C87.043 20.283 87.5617 22.509 87.5617 25.2H88.7617C88.7617 22.3577 88.2138 19.917 87.0849 17.9063L86.0385 18.4937ZM87.5617 25.2V37.5H88.7617V25.2H87.5617ZM87.5617 37.5C87.5617 38.0808 87.3704 38.5428 86.9875 38.9257L87.836 39.7743C88.4531 39.1572 88.7617 38.3859 88.7617 37.5H87.5617ZM86.9875 38.9257C86.6463 39.2669 86.2053 39.45 85.6117 39.45V40.65C86.4848 40.65 87.2438 40.3665 87.836 39.7743L86.9875 38.9257ZM65.0617 39.45C64.4683 39.45 64.0015 39.2664 63.6211 38.9114L62.8023 39.7886C63.4219 40.3669 64.1884 40.65 65.0617 40.65V39.45ZM63.6504 38.9406C63.2953 38.5602 63.1117 38.0934 63.1117 37.5H61.9117C61.9117 38.3733 62.1948 39.1398 62.7731 39.7594L63.6504 38.9406ZM63.1117 37.5V15.2H61.9117V37.5H63.1117ZM63.1117 15.2C63.1117 14.5646 63.3001 14.1102 63.636 13.7743L62.7875 12.9257C62.19 13.5232 61.9117 14.302 61.9117 15.2H63.1117ZM63.6211 13.7886C64.0015 13.4336 64.4683 13.25 65.0617 13.25V12.05C64.1884 12.05 63.4219 12.3331 62.8023 12.9114L63.6211 13.7886ZM65.0617 13.25C65.6971 13.25 66.1516 13.4384 66.4875 13.7743L67.336 12.9257C66.7385 12.3283 65.9597 12.05 65.0617 12.05V13.25ZM66.4875 13.7743C66.8233 14.1102 67.0117 14.5646 67.0117 15.2H68.2117C68.2117 14.302 67.9334 13.5232 67.336 12.9257L66.4875 13.7743ZM67.0117 15.2V37.5H68.2117V15.2H67.0117ZM67.0117 37.5C67.0117 38.0934 66.8281 38.5602 66.4731 38.9406L67.3504 39.7594C67.9286 39.1398 68.2117 38.3733 68.2117 37.5H67.0117ZM66.4875 38.9257C66.1516 39.2616 65.6971 39.45 65.0617 39.45V40.65C65.9597 40.65 66.7385 40.3717 67.336 39.7743L66.4875 38.9257ZM101.944 38.4L101.636 38.9153L101.646 38.9209L101.944 38.4ZM96.9938 33.4L96.4728 33.6977L96.4764 33.7039L96.9938 33.4ZM96.8438 19.25L96.3157 18.965L96.3141 18.9681L96.8438 19.25ZM101.444 14.3L101.76 14.8098L101.766 14.8058L101.444 14.3ZM113.444 13.7L113.175 14.2367L113.184 14.2409L113.444 13.7ZM117.644 17L117.177 17.3775L118.244 18.6948V17H117.644ZM118.344 1.65L117.934 1.21137L117.927 1.21842L117.919 1.22573L118.344 1.65ZM120.894 33.4L120.376 33.0961L120.373 33.1023L120.894 33.4ZM115.994 38.4L116.295 38.9189L116.301 38.9152L115.994 38.4ZM113.544 34.5L113.852 35.0146L113.862 35.0088L113.544 34.5ZM116.694 31.1L116.165 30.817L116.165 30.817L116.694 31.1ZM116.694 21.5L116.167 21.7882L116.167 21.7882L116.694 21.5ZM113.544 18.2L113.226 18.7089L113.235 18.7145L113.544 18.2ZM104.444 18.2L104.752 18.7145L104.756 18.7123L104.444 18.2ZM101.244 21.5L100.723 21.2023L100.717 21.2118L101.244 21.5ZM101.244 31.1L100.715 31.383L100.72 31.3924L101.244 31.1ZM104.444 34.5L104.126 35.0088L104.133 35.0134L104.141 35.0178L104.444 34.5ZM108.994 39.6C106.49 39.6 104.244 39.0234 102.241 37.8791L101.646 38.9209C103.843 40.1766 106.297 40.8 108.994 40.8V39.6ZM102.251 37.8848C100.272 36.7038 98.694 35.1102 97.5111 33.0961L96.4764 33.7039C97.7602 35.8898 99.4819 37.6296 101.636 38.9152L102.251 37.8848ZM97.5147 33.1023C96.371 31.1009 95.7938 28.8385 95.7938 26.3H94.5938C94.5938 29.0282 95.2165 31.4991 96.4728 33.6977L97.5147 33.1023ZM95.7938 26.3C95.7938 23.7525 96.3251 21.5014 97.3734 19.5319L96.3141 18.9681C95.1624 21.1319 94.5938 23.5808 94.5938 26.3H95.7938ZM97.3718 19.535C98.4579 17.5224 99.9202 15.9519 101.76 14.8098L101.127 13.7902C99.1007 15.0481 97.4963 16.7776 96.3157 18.965L97.3718 19.535ZM101.766 14.8058C103.597 13.6378 105.667 13.05 107.994 13.05V11.85C105.453 11.85 103.157 12.4955 101.121 13.7942L101.766 14.8058ZM107.994 13.05C109.873 13.05 111.597 13.4473 113.175 14.2367L113.712 13.1633C111.957 12.286 110.048 11.85 107.994 11.85V13.05ZM113.184 14.2409C114.773 15.0035 116.102 16.0485 117.177 17.3775L118.11 16.6225C116.919 15.1515 115.448 13.9965 113.703 13.1591L113.184 14.2409ZM118.244 17V3.5H117.044V17H118.244ZM118.244 3.5C118.244 2.86465 118.432 2.41016 118.768 2.07426L117.919 1.22573C117.322 1.82317 117.044 2.60202 117.044 3.5H118.244ZM118.753 2.08863C119.134 1.73358 119.6 1.55 120.194 1.55V0.349999C119.32 0.349999 118.554 0.633085 117.934 1.21137L118.753 2.08863ZM120.194 1.55C120.829 1.55 121.284 1.73837 121.619 2.07426L122.468 1.22573C121.871 0.628296 121.092 0.349999 120.194 0.349999V1.55ZM121.619 2.07426C121.955 2.41016 122.144 2.86465 122.144 3.5H123.344C123.344 2.60202 123.065 1.82317 122.468 1.22573L121.619 2.07426ZM122.144 3.5V26.3H123.344V3.5H122.144ZM122.144 26.3C122.144 28.8355 121.551 31.0957 120.376 33.0961L121.411 33.7039C122.703 31.5043 123.344 29.0312 123.344 26.3H122.144ZM120.373 33.1023C119.224 35.1131 117.664 36.7046 115.686 37.8848L116.301 38.9152C118.457 37.6287 120.164 35.8869 121.415 33.6977L120.373 33.1023ZM115.692 37.8811C113.725 39.0234 111.498 39.6 108.994 39.6V40.8C111.69 40.8 114.129 40.1766 116.295 38.9189L115.692 37.8811ZM108.994 36.3C110.792 36.3 112.417 35.8756 113.852 35.0145L113.235 33.9855C112.004 34.7244 110.595 35.1 108.994 35.1V36.3ZM113.862 35.0088C115.287 34.118 116.408 32.9055 117.223 31.383L116.165 30.817C115.446 32.1612 114.467 33.2153 113.226 33.9912L113.862 35.0088ZM117.223 31.383C118.04 29.8552 118.444 28.1566 118.444 26.3H117.244C117.244 27.9767 116.881 29.4782 116.165 30.817L117.223 31.383ZM118.444 26.3C118.444 24.4123 118.041 22.7109 117.22 21.2118L116.167 21.7882C116.88 23.0891 117.244 24.5877 117.244 26.3H118.444ZM117.22 21.2118C116.404 19.721 115.28 18.5418 113.852 17.6855L113.235 18.7145C114.475 19.4582 115.451 20.479 116.167 21.7882L117.22 21.2118ZM113.862 17.6912C112.425 16.7934 110.797 16.35 108.994 16.35V17.55C110.591 17.55 111.996 17.9399 113.226 18.7088L113.862 17.6912ZM108.994 16.35C107.222 16.35 105.596 16.7946 104.131 17.6877L104.756 18.7123C106.025 17.9387 107.433 17.55 108.994 17.55V16.35ZM104.135 17.6855C102.71 18.5404 101.572 19.7165 100.723 21.2023L101.765 21.7977C102.516 20.4835 103.511 19.4596 104.752 18.7145L104.135 17.6855ZM100.717 21.2118C99.8965 22.7109 99.4938 24.4123 99.4938 26.3H100.694C100.694 24.5877 101.058 23.0891 101.77 21.7882L100.717 21.2118ZM99.4938 26.3C99.4938 28.1566 99.8975 29.8552 100.715 31.383L101.773 30.817C101.057 29.4782 100.694 27.9767 100.694 26.3H99.4938ZM100.72 31.3924C101.567 32.9101 102.703 34.1195 104.126 35.0088L104.762 33.9912C103.518 33.2139 102.521 32.1566 101.768 30.8076L100.72 31.3924ZM104.141 35.0178C105.604 35.8745 107.226 36.3 108.994 36.3V35.1C107.428 35.1 106.017 34.7255 104.747 33.9822L104.141 35.0178ZM133 39.3L132.591 39.7386L132.591 39.7386L133 39.3ZM133.65 6.55L133.124 6.26196L133.119 6.26973L133.65 6.55ZM137.65 2.45L137.947 2.97163L137.954 2.96716L137.65 2.45ZM145.35 1.6L144.942 2.03968L144.949 2.04668L144.957 2.05341L145.35 1.6ZM145.35 4.9L145.758 5.33968L145.759 5.33863L145.35 4.9ZM140.3 6.4L139.989 5.88712L139.989 5.88713L140.3 6.4ZM138.1 8.75L137.571 8.46765L137.567 8.47461L137.563 8.48167L138.1 8.75ZM128.4 17.35L127.993 17.7909L127.993 17.7909L128.4 17.35ZM128.4 14.25L127.993 13.8091L127.993 13.8091L128.4 14.25ZM144.15 14.25L144.557 13.8091L144.557 13.8091L144.15 14.25ZM144.15 17.35L144.557 17.7909L144.557 17.7909L144.15 17.35ZM134.7 39.4C134.231 39.4 133.808 39.2334 133.409 38.8614L132.591 39.7386C133.192 40.2999 133.902 40.6 134.7 40.6V39.4ZM133.409 38.8614C133.046 38.5225 132.85 38.0726 132.85 37.45H131.65C131.65 38.3608 131.954 39.1442 132.591 39.7386L133.409 38.8614ZM132.85 37.45V12.8H131.65V37.45H132.85ZM132.85 12.8C132.85 10.4782 133.301 8.49481 134.181 6.83027L133.119 6.26973C132.132 8.13852 131.65 10.3218 131.65 12.8H132.85ZM134.176 6.83801C135.091 5.16594 136.346 3.88151 137.947 2.97157L137.353 1.92842C135.554 2.95182 134.142 4.40072 133.124 6.26199L134.176 6.83801ZM137.954 2.96716C139.55 2.02828 141.409 1.55 143.55 1.55V0.349999C141.224 0.349999 139.15 0.871716 137.346 1.93284L137.954 2.96716ZM143.55 1.55C144.156 1.55 144.603 1.72499 144.942 2.03968L145.758 1.16032C145.164 0.608338 144.41 0.349999 143.55 0.349999V1.55ZM144.957 2.05341C145.324 2.37179 145.5 2.75582 145.5 3.25H146.7C146.7 2.41084 146.376 1.69487 145.743 1.14659L144.957 2.05341ZM145.5 3.25C145.5 3.70274 145.33 4.09805 144.941 4.46137L145.759 5.33863C146.37 4.76862 146.7 4.06392 146.7 3.25H145.5ZM144.942 4.46032C144.603 4.77501 144.156 4.95 143.55 4.95V6.15C144.41 6.15 145.164 5.89166 145.758 5.33967L144.942 4.46032ZM143.55 4.95C142.221 4.95 141.028 5.25636 139.989 5.88712L140.611 6.91287C141.439 6.41031 142.412 6.15 143.55 6.15V4.95ZM139.989 5.88713C138.96 6.51185 138.153 7.37641 137.571 8.46765L138.629 9.03235C139.114 8.12359 139.774 7.42148 140.611 6.91287L139.989 5.88713ZM137.563 8.48167C137.013 9.58148 136.75 10.8606 136.75 12.3H137.95C137.95 11.0061 138.187 9.91852 138.637 9.01833L137.563 8.48167ZM136.75 12.3V37.45H137.95V12.3H136.75ZM136.75 37.45C136.75 38.0854 136.562 38.5398 136.226 38.8757L137.074 39.7243C137.672 39.1268 137.95 38.348 137.95 37.45H136.75ZM136.226 38.8757C135.899 39.2022 135.418 39.4 134.7 39.4V40.6C135.648 40.6 136.467 40.3312 137.074 39.7243L136.226 38.8757ZM130.1 17.35C129.521 17.35 129.109 17.1882 128.807 16.9091L127.993 17.7909C128.557 18.3118 129.279 18.55 130.1 18.55V17.35ZM128.807 16.9091C128.499 16.6249 128.35 16.2859 128.35 15.85H127.15C127.15 16.6141 127.434 17.2751 127.993 17.7909L128.807 16.9091ZM128.35 15.85C128.35 15.3267 128.513 14.9619 128.807 14.6909L127.993 13.8091C127.42 14.3381 127.15 15.04 127.15 15.85H128.35ZM128.807 14.6909C129.109 14.4118 129.521 14.25 130.1 14.25V13.05C129.279 13.05 128.557 13.2882 127.993 13.8091L128.807 14.6909ZM130.1 14.25H142.45V13.05H130.1V14.25ZM142.45 14.25C143.029 14.25 143.441 14.4118 143.743 14.6909L144.557 13.8091C143.993 13.2882 143.271 13.05 142.45 13.05V14.25ZM143.743 14.6909C144.037 14.9619 144.2 15.3267 144.2 15.85H145.4C145.4 15.04 145.13 14.3381 144.557 13.8091L143.743 14.6909ZM144.2 15.85C144.2 16.2859 144.051 16.6249 143.743 16.9091L144.557 17.7909C145.116 17.2751 145.4 16.6141 145.4 15.85H144.2ZM143.743 16.9091C143.441 17.1882 143.029 17.35 142.45 17.35V18.55C143.271 18.55 143.993 18.3118 144.557 17.7909L143.743 16.9091ZM142.45 17.35H130.1V18.55H142.45V17.35ZM155.409 38.8L155.118 39.3246L155.13 39.3307L155.409 38.8ZM151.109 34.45L150.582 34.7367L150.586 34.7437L151.109 34.45ZM150.259 13.35L149.835 12.9257L149.835 12.9257L150.259 13.35ZM153.909 13.35L153.471 13.7594L153.485 13.7745L153.5 13.7886L153.909 13.35ZM155.709 32.1L155.188 32.3962L155.191 32.4023L155.709 32.1ZM158.559 34.8L158.291 35.3368L158.303 35.3425L158.559 34.8ZM166.409 34.8L166.141 34.2633L166.135 34.2666L166.409 34.8ZM169.109 32.5L169.603 32.8406L169.603 32.8406L169.109 32.5ZM170.109 29.25V28.65H169.509V29.25H170.109ZM173.259 29.25H173.859V28.65H173.259V29.25ZM171.709 34.85L171.199 34.5338L171.195 34.5413L171.709 34.85ZM167.559 38.8L167.271 38.2736L167.267 38.276L167.559 38.8ZM170.809 39.3L170.371 39.7094L170.385 39.7245L170.4 39.7386L170.809 39.3ZM170.809 13.3L170.4 12.8614L170.392 12.8684L170.385 12.8757L170.809 13.3ZM174.509 39.3L174.934 39.7243L174.941 39.717L174.948 39.7094L174.509 39.3ZM161.609 39.65C159.396 39.65 157.427 39.1856 155.689 38.2693L155.13 39.3307C157.058 40.3477 159.223 40.85 161.609 40.85V39.65ZM155.701 38.2755C154.004 37.3327 152.648 35.9653 151.633 34.1563L150.586 34.7437C151.704 36.7347 153.215 38.2673 155.118 39.3245L155.701 38.2755ZM151.636 34.1633C150.663 32.3725 150.159 30.1438 150.159 27.45H148.959C148.959 30.2895 149.49 32.7275 150.582 34.7367L151.636 34.1633ZM150.159 27.45V15.15H148.959V27.45H150.159ZM150.159 15.15C150.159 14.5564 150.342 14.1154 150.684 13.7743L149.835 12.9257C149.243 13.5179 148.959 14.2769 148.959 15.15H150.159ZM150.684 13.7743C151.067 13.3914 151.529 13.2 152.109 13.2V12C151.224 12 150.452 12.3086 149.835 12.9257L150.684 13.7743ZM152.109 13.2C152.69 13.2 153.126 13.3905 153.471 13.7594L154.348 12.9406C153.759 12.3095 152.996 12 152.109 12V13.2ZM153.5 13.7886C153.869 14.133 154.059 14.5695 154.059 15.15H155.259C155.259 14.2638 154.95 13.5004 154.319 12.9114L153.5 13.7886ZM154.059 15.15V27.45H155.259V15.15H154.059ZM154.059 27.45C154.059 29.3886 154.423 31.0484 155.188 32.3962L156.231 31.8038C155.596 30.685 155.259 29.2447 155.259 27.45H154.059ZM155.191 32.4023C155.948 33.6993 156.983 34.6826 158.291 35.3367L158.828 34.2633C157.736 33.7174 156.871 32.9007 156.228 31.7977L155.191 32.4023ZM158.303 35.3425C159.593 35.9517 161.032 36.25 162.609 36.25V35.05C161.186 35.05 159.926 34.7816 158.816 34.2575L158.303 35.3425ZM162.609 36.25C164.123 36.25 165.487 35.9503 166.684 35.3334L166.135 34.2666C165.132 34.783 163.962 35.05 162.609 35.05V36.25ZM166.678 35.3367C167.894 34.7284 168.875 33.8972 169.603 32.8406L168.615 32.1594C168.011 33.0362 167.191 33.7383 166.141 34.2633L166.678 35.3367ZM169.603 32.8406C170.341 31.7715 170.709 30.5688 170.709 29.25H169.509C169.509 30.3312 169.211 31.2952 168.615 32.1594L169.603 32.8406ZM170.109 29.85H173.259V28.65H170.109V29.85ZM172.659 29.25C172.659 31.2112 172.171 32.9673 171.199 34.5338L172.219 35.1662C173.315 33.3993 173.859 31.4221 173.859 29.25H172.659ZM171.195 34.5413C170.252 36.1132 168.948 37.3562 167.271 38.2736L167.847 39.3264C169.704 38.3105 171.167 36.9201 172.224 35.1587L171.195 34.5413ZM167.267 38.276C165.634 39.1868 163.753 39.65 161.609 39.65V40.85C163.932 40.85 166.018 40.3465 167.852 39.324L167.267 38.276ZM172.659 39.4C172.066 39.4 171.599 39.2164 171.219 38.8614L170.4 39.7386C171.02 40.3169 171.786 40.6 172.659 40.6V39.4ZM171.248 38.8906C170.893 38.5102 170.709 38.0434 170.709 37.45H169.509C169.509 38.3233 169.792 39.0898 170.371 39.7094L171.248 38.8906ZM170.709 37.45V15.15H169.509V37.45H170.709ZM170.709 15.15C170.709 14.5146 170.898 14.0602 171.234 13.7243L170.385 12.8757C169.788 13.4732 169.509 14.252 169.509 15.15H170.709ZM171.219 13.7386C171.599 13.3836 172.066 13.2 172.659 13.2V12C171.786 12 171.02 12.2831 170.4 12.8614L171.219 13.7386ZM172.659 13.2C173.295 13.2 173.749 13.3884 174.085 13.7243L174.934 12.8757C174.336 12.2783 173.557 12 172.659 12V13.2ZM174.085 13.7243C174.421 14.0602 174.609 14.5146 174.609 15.15H175.809C175.809 14.252 175.531 13.4732 174.934 12.8757L174.085 13.7243ZM174.609 15.15V37.45H175.809V15.15H174.609ZM174.609 37.45C174.609 38.0434 174.426 38.5102 174.071 38.8906L174.948 39.7094C175.526 39.0898 175.809 38.3233 175.809 37.45H174.609ZM174.085 38.8757C173.749 39.2116 173.295 39.4 172.659 39.4V40.6C173.557 40.6 174.336 40.3217 174.934 39.7243L174.085 38.8757ZM186.791 38.8L186.445 39.2902L186.445 39.2902L186.791 38.8ZM184.141 35.55L183.595 35.7973L183.597 35.8023L184.141 35.55ZM183.891 1.65L184.316 2.07426L184.316 2.07426L183.891 1.65ZM187.491 1.65L187.067 2.07426L187.491 1.65ZM188.891 33.8L189.41 33.4977L189.41 33.4977L188.891 33.8ZM193.541 35.7L193.086 36.0905L193.094 36.0995L193.102 36.1083L193.541 35.7ZM193.241 39.3L193.597 39.783L193.597 39.783L193.241 39.3ZM190.691 39.4C189.341 39.4 188.164 39.0341 187.137 38.3098L186.445 39.2902C187.686 40.1659 189.108 40.6 190.691 40.6V39.4ZM187.137 38.3098C186.097 37.5755 185.279 36.5775 184.686 35.2977L183.597 35.8023C184.271 37.2558 185.219 38.4245 186.445 39.2902L187.137 38.3098ZM184.688 35.3027C184.095 33.9926 183.791 32.4792 183.791 30.75H182.591C182.591 32.6208 182.921 34.3074 183.595 35.7973L184.688 35.3027ZM183.791 30.75V3.45H182.591V30.75H183.791ZM183.791 3.45C183.791 2.85642 183.975 2.41541 184.316 2.07426L183.467 1.22573C182.875 1.81792 182.591 2.57692 182.591 3.45H183.791ZM184.316 2.07426C184.657 1.73312 185.098 1.55 185.691 1.55V0.349999C184.818 0.349999 184.059 0.633546 183.467 1.22573L184.316 2.07426ZM185.691 1.55C186.285 1.55 186.726 1.73312 187.067 2.07426L187.916 1.22573C187.323 0.633546 186.564 0.349999 185.691 0.349999V1.55ZM187.067 2.07426C187.408 2.41541 187.591 2.85642 187.591 3.45H188.791C188.791 2.57692 188.508 1.81792 187.916 1.22573L187.067 2.07426ZM187.591 3.45V30.75H188.791V3.45H187.591ZM187.591 30.75C187.591 32.0555 187.838 33.185 188.373 34.1023L189.41 33.4977C189.011 32.815 188.791 31.9112 188.791 30.75H187.591ZM188.373 34.1023C188.915 35.0305 189.687 35.6 190.691 35.6V34.4C190.229 34.4 189.802 34.1695 189.41 33.4977L188.373 34.1023ZM190.691 35.6H191.941V34.4H190.691V35.6ZM191.941 35.6C192.45 35.6 192.81 35.769 193.086 36.0905L193.997 35.3095C193.472 34.6976 192.766 34.4 191.941 34.4V35.6ZM193.102 36.1083C193.416 36.4472 193.591 36.8935 193.591 37.5H194.791C194.791 36.6398 194.533 35.8862 193.981 35.2917L193.102 36.1083ZM193.591 37.5C193.591 38.0271 193.378 38.4538 192.885 38.817L193.597 39.783C194.371 39.2129 194.791 38.4396 194.791 37.5H193.591ZM192.885 38.817C192.38 39.1892 191.698 39.4 190.791 39.4V40.6C191.885 40.6 192.836 40.3441 193.597 39.783L192.885 38.817ZM190.791 39.4H190.691V40.6H190.791V39.4ZM231.382 39.2L230.957 39.6243L230.957 39.6243L231.382 39.2ZM220.932 28.75L221.356 28.3257L221.356 28.3257L220.932 28.75ZM220.932 25.2L221.356 25.6243L221.356 25.6243L220.932 25.2ZM224.482 25.2L224.907 24.7767L224.906 24.7757L224.482 25.2ZM234.932 35.7L235.369 35.2896L235.363 35.2831L235.357 35.2767L234.932 35.7ZM235.682 37.45H235.082V37.4658L235.082 37.4815L235.682 37.45ZM234.932 39.2L235.356 39.6243L235.356 39.6243L234.932 39.2ZM209.682 39.05L209.454 39.605L209.46 39.6076L209.682 39.05ZM203.382 34.9L202.949 35.3163L202.957 35.3243L203.382 34.9ZM199.332 28.55L198.773 28.7689L198.774 28.7715L199.332 28.55ZM199.332 12.4L198.774 12.1785L198.774 12.1785L199.332 12.4ZM203.382 6.1L202.953 5.67972L202.953 5.67979L203.382 6.1ZM209.682 1.95L209.903 2.50765L209.91 2.50496L209.682 1.95ZM225.732 1.95L225.501 2.50392L225.51 2.50761L225.732 1.95ZM232.032 6.1L231.603 6.5203L231.607 6.52426L232.032 6.1ZM236.132 12.4L236.689 12.1785L236.689 12.1785L236.132 12.4ZM236.132 28.55L236.689 28.7715L236.69 28.7689L236.132 28.55ZM232.032 34.9L232.456 35.3243L232.46 35.3203L232.032 34.9ZM225.732 39.05L225.956 39.6066L225.96 39.605L225.732 39.05ZM223.682 34.65L223.917 35.202L223.922 35.1999L223.682 34.65ZM228.432 31.4L228.861 31.819L228.866 31.8138L228.432 31.4ZM231.482 26.5L230.923 26.2806L230.92 26.2893L231.482 26.5ZM231.482 14.4L230.92 14.6107L230.923 14.6194L231.482 14.4ZM228.432 9.55L227.997 9.96382L228.002 9.96899L228.432 9.55ZM223.682 6.3L223.447 6.85203L223.45 6.85355L223.682 6.3ZM211.732 6.3L211.5 5.74644L211.497 5.74798L211.732 6.3ZM207.032 9.55L206.597 9.13621L206.597 9.13647L207.032 9.55ZM207.032 31.4L206.592 31.8083L206.597 31.8137L206.602 31.819L207.032 31.4ZM211.732 34.65L211.488 35.1984L211.5 35.2035L211.732 34.65ZM231.806 38.7757L221.356 28.3257L220.507 29.1743L230.957 39.6243L231.806 38.7757ZM221.356 28.3257C220.912 27.8819 220.732 27.4443 220.732 27H219.532C219.532 27.8223 219.885 28.5515 220.507 29.1743L221.356 28.3257ZM220.732 27C220.732 26.5139 220.919 26.0612 221.356 25.6243L220.507 24.7757C219.878 25.4055 219.532 26.1528 219.532 27H220.732ZM221.356 25.6243C221.8 25.1804 222.237 25 222.682 25V23.8C221.859 23.8 221.13 24.1529 220.507 24.7757L221.356 25.6243ZM222.682 25C223.168 25 223.62 25.1873 224.057 25.6243L224.906 24.7757C224.276 24.146 223.529 23.8 222.682 23.8V25ZM224.056 25.6233L234.506 36.1233L235.357 35.2767L224.907 24.7767L224.056 25.6233ZM234.494 36.1104C234.907 36.5509 235.082 36.9926 235.082 37.45H236.282C236.282 36.6407 235.956 35.9158 235.369 35.2896L234.494 36.1104ZM235.082 37.4815C235.105 37.9128 234.945 38.3378 234.507 38.7757L235.356 39.6243C235.985 38.9955 236.325 38.2538 236.281 37.4185L235.082 37.4815ZM234.507 38.7757C234.07 39.2127 233.618 39.4 233.132 39.4V40.6C233.979 40.6 234.726 40.254 235.356 39.6243L234.507 38.7757ZM233.132 39.4C232.687 39.4 232.25 39.2196 231.806 38.7757L230.957 39.6243C231.58 40.2471 232.309 40.6 233.132 40.6V39.4ZM217.732 39.9C214.865 39.9 212.258 39.4279 209.903 38.4924L209.46 39.6076C211.972 40.6055 214.732 41.1 217.732 41.1V39.9ZM209.91 38.495C207.546 37.5236 205.514 36.1833 203.806 34.4757L202.957 35.3243C204.783 37.15 206.951 38.5764 209.454 39.605L209.91 38.495ZM203.814 34.4838C202.137 32.7426 200.829 30.6929 199.889 28.3285L198.774 28.7715C199.768 31.2737 201.159 33.4574 202.949 35.3162L203.814 34.4838ZM199.89 28.3311C198.954 25.9413 198.482 23.3164 198.482 20.45H197.282C197.282 23.4502 197.776 26.2254 198.773 28.7689L199.89 28.3311ZM198.482 20.45C198.482 17.5834 198.954 14.9764 199.889 12.6215L198.774 12.1785C197.776 14.6903 197.282 17.4499 197.282 20.45H198.482ZM199.889 12.6215C200.828 10.258 202.136 8.22664 203.81 6.5202L202.953 5.67979C201.161 7.50669 199.768 9.67534 198.774 12.1785L199.889 12.6215ZM203.81 6.52028C205.516 4.78225 207.545 3.44461 209.903 2.50761L209.46 1.39239C206.952 2.38872 204.781 3.81775 202.953 5.67972L203.81 6.52028ZM209.91 2.50496C212.263 1.53794 214.868 1.05 217.732 1.05V-0.15C214.729 -0.15 211.967 0.362061 209.454 1.39503L209.91 2.50496ZM217.732 1.05C220.596 1.05 223.183 1.53798 225.501 2.50384L225.962 1.39615C223.48 0.362019 220.734 -0.15 217.732 -0.15V1.05ZM225.51 2.50761C227.869 3.44461 229.898 4.78225 231.603 6.52028L232.46 5.67972C230.632 3.81775 228.461 2.38872 225.953 1.39239L225.51 2.50761ZM231.607 6.52426C233.313 8.23037 234.636 10.2604 235.574 12.6215L236.689 12.1785C235.694 9.6729 234.283 7.50296 232.456 5.67573L231.607 6.52426ZM235.574 12.6215C236.51 14.9764 236.982 17.5834 236.982 20.45H238.182C238.182 17.4499 237.687 14.6903 236.689 12.1785L235.574 12.6215ZM236.982 20.45C236.982 23.3164 236.51 25.9413 235.573 28.3311L236.69 28.7689C237.687 26.2254 238.182 23.4502 238.182 20.45H236.982ZM235.574 28.3285C234.636 30.6905 233.312 32.7389 231.603 34.4797L232.46 35.3203C234.285 33.4611 235.694 31.2762 236.689 28.7715L235.574 28.3285ZM231.607 34.4757C229.9 36.1833 227.867 37.5236 225.504 38.495L225.96 39.605C228.462 38.5764 230.63 37.15 232.456 35.3243L231.607 34.4757ZM225.507 38.4934C223.188 39.4278 220.598 39.9 217.732 39.9V41.1C220.732 41.1 223.476 40.6055 225.956 39.6066L225.507 38.4934ZM217.732 36.4C219.97 36.4 222.035 36.0036 223.917 35.202L223.447 34.098C221.728 34.8297 219.826 35.2 217.732 35.2V36.4ZM223.922 35.1999C225.823 34.3704 227.471 33.2438 228.861 31.819L228.002 30.981C226.726 32.2896 225.207 33.3296 223.442 34.1001L223.922 35.1999ZM228.866 31.8138C230.257 30.3535 231.316 28.6505 232.043 26.7107L230.92 26.2893C230.247 28.0828 229.273 29.6465 227.997 30.9862L228.866 31.8138ZM232.04 26.7194C232.803 24.7774 233.182 22.6857 233.182 20.45H231.982C231.982 22.5476 231.627 24.4893 230.923 26.2806L232.04 26.7194ZM233.182 20.45C233.182 18.2143 232.803 16.1226 232.04 14.1806L230.923 14.6194C231.627 16.4107 231.982 18.3523 231.982 20.45H233.182ZM232.043 14.1893C231.316 12.2483 230.255 10.5598 228.861 9.131L228.002 9.96899C229.275 11.2735 230.248 12.8184 230.92 14.6107L232.043 14.1893ZM228.866 9.13621C227.474 7.67438 225.821 6.54424 223.913 5.74645L223.45 6.85355C225.209 7.58909 226.723 8.62562 227.997 9.96379L228.866 9.13621ZM223.917 5.74798C222.035 4.94641 219.97 4.55 217.732 4.55V5.75C219.826 5.75 221.728 6.12025 223.447 6.85201L223.917 5.74798ZM217.732 4.55C215.493 4.55 213.413 4.94645 211.5 5.74645L211.963 6.85355C213.717 6.12021 215.637 5.75 217.732 5.75V4.55ZM211.497 5.74798C209.622 6.54628 207.988 7.67631 206.597 9.13621L207.466 9.96379C208.742 8.62368 210.241 7.58706 211.967 6.85201L211.497 5.74798ZM206.597 9.13647C205.24 10.5627 204.183 12.2465 203.423 14.1806L204.54 14.6194C205.247 12.8202 206.223 11.2706 207.466 9.96353L206.597 9.13647ZM203.423 14.1806C202.66 16.1226 202.282 18.2143 202.282 20.45H203.482C203.482 18.3523 203.836 16.4107 204.54 14.6194L203.423 14.1806ZM202.282 20.45C202.282 22.6857 202.66 24.7774 203.423 26.7194L204.54 26.2806C203.836 24.4893 203.482 22.5476 203.482 20.45H202.282ZM203.423 26.7194C204.183 28.6524 205.238 30.3506 206.592 31.8083L207.471 30.9917C206.225 29.6494 205.247 28.081 204.54 26.2806L203.423 26.7194ZM206.602 31.819C207.99 33.2419 209.621 34.3684 211.488 35.1983L211.975 34.1017C210.243 33.3316 208.74 32.2914 207.461 30.981L206.602 31.819ZM211.5 35.2035C213.413 36.0035 215.493 36.4 217.732 36.4V35.2C215.637 35.2 213.717 34.8298 211.963 34.0965L211.5 35.2035Z" fill="black"/>
</svg>
