<svg xmlns="http://www.w3.org/2000/svg" xmlns:xlink="http://www.w3.org/1999/xlink" zoomAndPan="magnify" preserveAspectRatio="xMidYMid meet" version="1.0" viewBox="71.61 167.71 201.07 38.47"><defs><g/></defs><path fill="#000000" d="M 71.605469 167.707031 L 244.933594 167.707031 L 244.933594 206.175781 L 71.605469 206.175781 L 71.605469 167.707031 " fill-opacity="1" fill-rule="nonzero"/><g fill="#f9f6f2" fill-opacity="1"><g transform="translate(83.72691, 194.176961)"><g><path d="M 17.140625 0 L 17.109375 -10 L 12.203125 -1.765625 L 10.46875 -1.765625 L 5.59375 -9.78125 L 5.59375 0 L 1.96875 0 L 1.96875 -16.65625 L 5.15625 -16.65625 L 11.40625 -6.3125 L 17.53125 -16.65625 L 20.703125 -16.65625 L 20.75 0 Z M 17.140625 0 "/></g></g></g><g fill="#f9f6f2" fill-opacity="1"><g transform="translate(111.588862, 194.176961)"><g><path d="M 1.96875 -16.65625 L 5.828125 -16.65625 L 5.828125 0 L 1.96875 0 Z M 1.96875 -16.65625 "/></g></g></g><g fill="#f9f6f2" fill-opacity="1"><g transform="translate(124.534468, 194.176961)"><g><path d="M 17.25 -16.65625 L 17.25 0 L 14.09375 0 L 5.78125 -10.109375 L 5.78125 0 L 1.96875 0 L 1.96875 -16.65625 L 5.15625 -16.65625 L 13.4375 -6.546875 L 13.4375 -16.65625 Z M 17.25 -16.65625 "/></g></g></g><g fill="#f9f6f2" fill-opacity="1"><g transform="translate(148.899281, 194.176961)"><g><path d="M 1.96875 -16.65625 L 9.546875 -16.65625 C 11.347656 -16.65625 12.941406 -16.3125 14.328125 -15.625 C 15.722656 -14.9375 16.804688 -13.960938 17.578125 -12.703125 C 18.347656 -11.453125 18.734375 -9.992188 18.734375 -8.328125 C 18.734375 -6.660156 18.347656 -5.203125 17.578125 -3.953125 C 16.804688 -2.703125 15.722656 -1.726562 14.328125 -1.03125 C 12.941406 -0.34375 11.347656 0 9.546875 0 L 1.96875 0 Z M 9.359375 -3.171875 C 11.015625 -3.171875 12.335938 -3.632812 13.328125 -4.5625 C 14.328125 -5.488281 14.828125 -6.742188 14.828125 -8.328125 C 14.828125 -9.910156 14.328125 -11.164062 13.328125 -12.09375 C 12.335938 -13.03125 11.015625 -13.5 9.359375 -13.5 L 5.828125 -13.5 L 5.828125 -3.171875 Z M 9.359375 -3.171875 "/></g></g></g><g fill="#f9f6f2" fill-opacity="1"><g transform="translate(173.692328, 194.176961)"><g><path d="M 5.828125 -13.5625 L 5.828125 -9.15625 L 13.546875 -9.15625 L 13.546875 -6.0625 L 5.828125 -6.0625 L 5.828125 0 L 1.96875 0 L 1.96875 -16.65625 L 14.5625 -16.65625 L 14.5625 -13.5625 Z M 5.828125 -13.5625 "/></g></g></g><g fill="#f9f6f2" fill-opacity="1"><g transform="translate(194.036629, 194.176961)"><g><path d="M 9.375 0.28125 C 7 0.28125 5.144531 -0.375 3.8125 -1.6875 C 2.488281 -3.007812 1.828125 -4.890625 1.828125 -7.328125 L 1.828125 -16.65625 L 5.6875 -16.65625 L 5.6875 -7.46875 C 5.6875 -4.488281 6.925781 -3 9.40625 -3 C 10.601562 -3 11.519531 -3.359375 12.15625 -4.078125 C 12.789062 -4.796875 13.109375 -5.925781 13.109375 -7.46875 L 13.109375 -16.65625 L 16.921875 -16.65625 L 16.921875 -7.328125 C 16.921875 -4.890625 16.257812 -3.007812 14.9375 -1.6875 C 13.613281 -0.375 11.757812 0.28125 9.375 0.28125 Z M 9.375 0.28125 "/></g></g></g><g fill="#f9f6f2" fill-opacity="1"><g transform="translate(217.925637, 194.176961)"><g><path d="M 1.96875 -16.65625 L 5.828125 -16.65625 L 5.828125 -3.140625 L 14.1875 -3.140625 L 14.1875 0 L 1.96875 0 Z M 1.96875 -16.65625 "/></g></g></g><g fill="#000000" fill-opacity="1"><g transform="translate(250.44072, 195.671185)"><g><path d="M 20.515625 -0.59375 L 22.234375 2.390625 C 21.503906 3.046875 20.640625 3.5625 19.640625 3.9375 C 18.648438 4.3125 17.671875 4.5 16.703125 4.5 C 15.398438 4.5 14.210938 4.117188 13.140625 3.359375 C 12.066406 2.609375 11.210938 1.5625 10.578125 0.21875 C 7.722656 0.125 5.351562 -0.847656 3.46875 -2.703125 C 1.59375 -4.554688 0.65625 -6.84375 0.65625 -9.5625 C 0.65625 -12.34375 1.632812 -14.648438 3.59375 -16.484375 C 5.5625 -18.316406 8.015625 -19.234375 10.953125 -19.234375 C 13.910156 -19.234375 16.367188 -18.3125 18.328125 -16.46875 C 20.296875 -14.625 21.28125 -12.320312 21.28125 -9.5625 C 21.28125 -7.476562 20.703125 -5.617188 19.546875 -3.984375 C 18.398438 -2.347656 16.863281 -1.175781 14.9375 -0.46875 C 15.625 0.40625 16.394531 0.84375 17.25 0.84375 C 18.175781 0.84375 19.265625 0.363281 20.515625 -0.59375 Z M 7.1875 -13.546875 C 6.132812 -12.472656 5.609375 -11.132812 5.609375 -9.53125 C 5.609375 -7.9375 6.140625 -6.585938 7.203125 -5.484375 C 8.265625 -4.390625 9.53125 -3.84375 11 -3.84375 C 12.476562 -3.84375 13.726562 -4.390625 14.75 -5.484375 C 15.78125 -6.585938 16.296875 -7.9375 16.296875 -9.53125 C 16.296875 -11.132812 15.78125 -12.472656 14.75 -13.546875 C 13.726562 -14.628906 12.484375 -15.171875 11.015625 -15.171875 C 9.523438 -15.171875 8.25 -14.628906 7.1875 -13.546875 Z M 7.1875 -13.546875 "/></g></g></g></svg>