<svg xmlns="http://www.w3.org/2000/svg" xmlns:xlink="http://www.w3.org/1999/xlink" zoomAndPan="magnify" preserveAspectRatio="xMidYMid meet" version="1.0" viewBox="60.54 157.93 252.42 37.2"><defs><g/></defs><g fill="#ffffff" fill-opacity="1"><g transform="translate(61.308632, 187.166957)"><g><path d="M 23.4375 0 L 17.484375 -23.28125 L 18.96875 -28.890625 L 25.609375 -28.890625 L 32.9375 0 Z M -0.765625 0 L 4.046875 -18.5625 L 8.8125 0 Z M 11.296875 0 L 5.3125 -23.28125 L 6.796875 -28.890625 L 13.4375 -28.890625 L 20.796875 0 Z M 11.296875 0 "/></g></g></g><g fill="#ffffff" fill-opacity="1"><g transform="translate(102.191574, 187.166957)"><g><path d="M 1.296875 0 L 1.296875 -28.890625 L 11.5625 -28.890625 L 11.5625 0 Z M 1.296875 0 "/></g></g></g><g fill="#ffffff" fill-opacity="1"><g transform="translate(123.70141, 187.166957)"><g><path d="M 23.515625 -28.890625 L 23.515625 -7.671875 L 14.078125 -28.890625 Z M 23.515625 0 L 13.25 0 L 1.296875 -27.03125 L 1.296875 -28.890625 L 12.03125 -28.890625 L 23.515625 -2.203125 Z M 1.296875 0 L 1.296875 -21.1875 L 10.765625 0 Z M 1.296875 0 "/></g></g></g><g fill="#ffffff" fill-opacity="1"><g transform="translate(157.143671, 187.166957)"><g><path d="M 11.5625 0 L 1.296875 0 L 1.296875 -28.890625 L 11.5625 -28.890625 Z M 14 0 L 14 -28.890625 C 17.644531 -28.566406 20.421875 -27.171875 22.328125 -24.703125 C 24.242188 -22.242188 25.203125 -18.820312 25.203125 -14.4375 C 25.203125 -10.050781 24.242188 -6.625 22.328125 -4.15625 C 20.421875 -1.6875 17.644531 -0.300781 14 0 Z M 14 0 "/></g></g></g><g fill="#ffffff" fill-opacity="1"><g transform="translate(191.699104, 187.166957)"><g><path d="M 11.40625 0 L 1.296875 0 L 1.296875 -28.890625 L 11.40625 -28.890625 Z M 12.25 -28.890625 L 22.25 -28.890625 L 22.25 -17.75 Z M 18.4375 -9.078125 L 12.125 -15.046875 L 18.4375 -21 Z M 18.4375 -9.078125 "/></g></g></g><g fill="#ffffff" fill-opacity="1"><g transform="translate(223.090784, 187.166957)"><g><path d="M 11.40625 0.359375 C 7.664062 0.304688 5.046875 -0.492188 3.546875 -2.046875 C 2.046875 -3.597656 1.296875 -6.328125 1.296875 -10.234375 L 1.296875 -28.890625 L 11.40625 -28.890625 Z M 13.59375 0.359375 L 13.59375 -28.890625 L 23.71875 -28.890625 L 23.71875 -10.234375 C 23.71875 -6.328125 22.960938 -3.597656 21.453125 -2.046875 C 19.953125 -0.492188 17.332031 0.304688 13.59375 0.359375 Z M 13.59375 0.359375 "/></g></g></g><g fill="#ffffff" fill-opacity="1"><g transform="translate(256.728343, 187.166957)"><g><path d="M 12.5625 0 L 21.109375 -13.359375 L 21.109375 0 Z M 11.5625 0 L 1.296875 0 L 1.296875 -28.890625 L 11.5625 -28.890625 Z M 11.5625 0 "/></g></g></g><g fill="#ffffff" fill-opacity="1"><g transform="translate(287.397431, 187.166957)"><g><path d="M 14.359375 7.96875 L 14.359375 -29.234375 C 17.992188 -28.953125 20.769531 -27.546875 22.6875 -25.015625 C 24.601562 -22.492188 25.5625 -18.96875 25.5625 -14.4375 C 25.5625 -10.132812 24.679688 -6.722656 22.921875 -4.203125 C 21.160156 -1.691406 18.570312 -0.128906 15.15625 0.484375 L 23.09375 7.96875 Z M 11.953125 0.359375 C 8.316406 0.078125 5.539062 -1.328125 3.625 -3.859375 C 1.71875 -6.390625 0.765625 -9.914062 0.765625 -14.4375 C 0.765625 -18.96875 1.71875 -22.492188 3.625 -25.015625 C 5.539062 -27.546875 8.316406 -28.953125 11.953125 -29.234375 Z M 11.953125 0.359375 "/></g></g></g></svg>