<svg xmlns="http://www.w3.org/2000/svg" xmlns:xlink="http://www.w3.org/1999/xlink" zoomAndPan="magnify" preserveAspectRatio="xMidYMid meet" version="1.0" viewBox="92.93 105.28 186.57 171.95"><defs><g/></defs><g fill="#000000" fill-opacity="1"><g transform="translate(92.928666, 277.230861)"><g><path d="M 153.898438 -41.484375 L 186.566406 -41.484375 L 186.566406 -170.019531 C 186.566406 -170.878906 185.707031 -171.953125 184.203125 -171.953125 L 155.832031 -171.953125 C 154.972656 -171.953125 153.898438 -171.308594 153.46875 -170.664062 L 94.789062 -44.707031 L 33.101562 -170.664062 C 32.886719 -171.308594 31.597656 -171.953125 30.953125 -171.953125 L 2.148438 -171.953125 C 0.644531 -171.953125 0 -170.878906 0 -170.019531 L 0 -1.933594 C 0 -1.074219 0.644531 0 2.148438 0 L 30.523438 0 C 31.8125 0 32.886719 -1.074219 32.886719 -1.933594 L 32.886719 -98.441406 L 79.527344 -8.167969 C 79.742188 -7.523438 81.03125 -6.878906 81.675781 -6.878906 L 108.113281 -6.878906 C 108.761719 -6.878906 109.835938 -7.523438 110.050781 -8.167969 L 153.898438 -96.078125 Z M 153.898438 -41.484375 "/></g></g></g><g fill="#000000" fill-opacity="1"><g transform="translate(247.204911, 273.17587)"><g><path d="M 5.992188 -16.660156 C 5.992188 -18.097656 6.277344 -19.53125 6.769531 -20.84375 L 20.3125 -7.304688 C 18.875 -6.605469 17.152344 -6.15625 15.714844 -6.15625 C 9.808594 -6.15625 5.992188 -11.203125 5.992188 -16.660156 Z M 25.523438 -16.660156 C 25.523438 -15.058594 25.113281 -13.089844 24.457031 -11.695312 L 10.546875 -25.605469 C 11.980469 -26.507812 13.707031 -27.042969 15.714844 -27.042969 C 22.078125 -27.042969 25.523438 -22.117188 25.523438 -16.660156 Z M 31.761719 -4.183594 L 28.765625 -7.222656 C 30.449219 -9.808594 31.472656 -13.460938 31.472656 -16.660156 C 31.472656 -25.238281 25.070312 -32.828125 15.714844 -32.828125 C 5.992188 -32.828125 0 -25.238281 0 -16.660156 C 0 -8 6.277344 -0.371094 15.714844 -0.371094 C 18.957031 -0.371094 22.035156 -1.394531 24.621094 -3.078125 L 27.574219 -0.0820312 C 27.78125 0.0429688 28.027344 0.0429688 28.230469 -0.0820312 L 31.761719 -3.652344 C 31.964844 -3.816406 31.964844 -4.0625 31.761719 -4.183594 Z M 31.761719 -4.183594 "/></g></g></g></svg>