<svg xmlns="http://www.w3.org/2000/svg" xmlns:xlink="http://www.w3.org/1999/xlink" zoomAndPan="magnify" preserveAspectRatio="xMidYMid meet" version="1.0" viewBox="101.11 174.33 170.77 33.17"><defs><g/></defs><g fill="#ffffff" fill-opacity="1"><g transform="translate(100.160153, 200.249987)"><g><path d="M 17.25 0 L 14.546875 0 L 14.546875 -21.234375 L 10.046875 -8.09375 L 8.125 -8.09375 L 3.640625 -21.234375 L 3.640625 0 L 0.953125 0 L 0.953125 -25.484375 L 4.4375 -25.484375 L 9.078125 -12.171875 L 13.765625 -25.484375 L 17.25 -25.484375 Z M 17.25 0 "/></g></g></g><g fill="#ffffff" fill-opacity="1"><g transform="translate(121.993957, 200.249987)"><g><path d="M 10.921875 -21.84375 L 7.28125 -21.84375 L 7.28125 -25.484375 L 10.921875 -25.484375 Z M 14.546875 0 L 3.640625 0 L 3.640625 -2.28125 L 7.75 -2.28125 L 7.75 -15.921875 L 3.640625 -15.921875 L 3.640625 -18.203125 L 10.453125 -18.203125 L 10.453125 -2.28125 L 14.546875 -2.28125 Z M 14.546875 0 "/></g></g></g><g fill="#ffffff" fill-opacity="1"><g transform="translate(143.82776, 200.249987)"><g><path d="M 17.25 0 L 14.546875 0 L 14.546875 -11.234375 C 14.546875 -12.859375 14.191406 -14.117188 13.484375 -15.015625 C 12.785156 -15.921875 11.648438 -16.375 10.078125 -16.375 C 9.085938 -16.375 8.191406 -16.144531 7.390625 -15.6875 C 6.585938 -15.226562 5.90625 -14.617188 5.34375 -13.859375 C 4.789062 -13.097656 4.367188 -12.222656 4.078125 -11.234375 C 3.785156 -10.253906 3.640625 -9.234375 3.640625 -8.171875 L 3.640625 0 L 0.953125 0 L 0.953125 -18.203125 L 3.640625 -18.203125 L 3.640625 -13.640625 C 4.921875 -16.972656 7.21875 -18.640625 10.53125 -18.640625 C 15.007812 -18.640625 17.25 -16.171875 17.25 -11.234375 Z M 17.25 0 "/></g></g></g><g fill="#ffffff" fill-opacity="1"><g transform="translate(165.661564, 200.249987)"><g><path d="M 17.25 0 L 14.546875 0 L 14.546875 -1.6875 C 13.785156 -0.988281 12.941406 -0.457031 12.015625 -0.09375 C 11.097656 0.269531 10.160156 0.453125 9.203125 0.453125 C 7.753906 0.453125 6.457031 0.21875 5.3125 -0.25 C 4.164062 -0.71875 3.195312 -1.375 2.40625 -2.21875 C 1.625 -3.0625 1.019531 -4.066406 0.59375 -5.234375 C 0.164062 -6.410156 -0.046875 -7.691406 -0.046875 -9.078125 C -0.046875 -10.460938 0.164062 -11.742188 0.59375 -12.921875 C 1.019531 -14.097656 1.625 -15.101562 2.40625 -15.9375 C 3.195312 -16.78125 4.164062 -17.441406 5.3125 -17.921875 C 6.457031 -18.398438 7.753906 -18.640625 9.203125 -18.640625 C 10.160156 -18.640625 11.097656 -18.460938 12.015625 -18.109375 C 12.941406 -17.765625 13.785156 -17.25 14.546875 -16.5625 L 14.546875 -23.203125 L 10.921875 -23.203125 L 10.921875 -25.484375 L 17.25 -25.484375 Z M 14.546875 -13.96875 C 13.785156 -14.8125 12.953125 -15.421875 12.046875 -15.796875 C 11.140625 -16.179688 10.175781 -16.375 9.15625 -16.375 C 8.09375 -16.375 7.15625 -16.179688 6.34375 -15.796875 C 5.53125 -15.421875 4.847656 -14.90625 4.296875 -14.25 C 3.753906 -13.601562 3.34375 -12.835938 3.0625 -11.953125 C 2.78125 -11.078125 2.640625 -10.117188 2.640625 -9.078125 C 2.640625 -8.035156 2.78125 -7.078125 3.0625 -6.203125 C 3.34375 -5.328125 3.753906 -4.5625 4.296875 -3.90625 C 4.847656 -3.257812 5.53125 -2.742188 6.34375 -2.359375 C 7.15625 -1.984375 8.09375 -1.796875 9.15625 -1.796875 C 11.21875 -1.796875 13.015625 -2.609375 14.546875 -4.234375 Z M 14.546875 -13.96875 "/></g></g></g><g fill="#ffffff" fill-opacity="1"><g transform="translate(187.495367, 200.249987)"><g><path d="M 18.203125 -15.921875 L 10.453125 -15.921875 L 10.453125 -2.28125 L 14.546875 -2.28125 L 14.546875 0 L 3.640625 0 L 3.640625 -2.28125 L 7.75 -2.28125 L 7.75 -15.921875 L 3.640625 -15.921875 L 3.640625 -18.203125 L 7.75 -18.203125 C 7.75 -20.703125 8.394531 -22.613281 9.6875 -23.9375 C 10.988281 -25.257812 12.945312 -25.921875 15.5625 -25.921875 C 16.175781 -25.921875 16.691406 -25.898438 17.109375 -25.859375 C 17.535156 -25.816406 17.898438 -25.769531 18.203125 -25.71875 L 18.203125 -23.4375 C 17.828125 -23.488281 17.429688 -23.535156 17.015625 -23.578125 C 16.609375 -23.617188 16.125 -23.640625 15.5625 -23.640625 C 13.863281 -23.640625 12.585938 -23.203125 11.734375 -22.328125 C 10.878906 -21.460938 10.453125 -20.085938 10.453125 -18.203125 L 18.203125 -18.203125 Z M 18.203125 -15.921875 "/></g></g></g><g fill="#ffffff" fill-opacity="1"><g transform="translate(209.329171, 200.249987)"><g><path d="M 0.953125 -18.203125 L 3.640625 -18.203125 L 3.640625 -6.953125 C 3.640625 -5.328125 3.992188 -4.066406 4.703125 -3.171875 C 5.410156 -2.285156 6.550781 -1.84375 8.125 -1.84375 C 9.113281 -1.84375 10.003906 -2.066406 10.796875 -2.515625 C 11.597656 -2.972656 12.273438 -3.582031 12.828125 -4.34375 C 13.390625 -5.101562 13.816406 -5.972656 14.109375 -6.953125 C 14.398438 -7.941406 14.546875 -8.972656 14.546875 -10.046875 L 14.546875 -18.203125 L 17.25 -18.203125 L 17.25 0 L 14.546875 0 L 14.546875 -4.546875 C 13.273438 -1.210938 10.984375 0.453125 7.671875 0.453125 C 3.191406 0.453125 0.953125 -2.015625 0.953125 -6.953125 Z M 0.953125 -18.203125 "/></g></g></g><g fill="#ffffff" fill-opacity="1"><g transform="translate(231.162975, 200.249987)"><g><path d="M 14.546875 0 L 3.640625 0 L 3.640625 -2.28125 L 7.75 -2.28125 L 7.75 -23.203125 L 3.640625 -23.203125 L 3.640625 -25.484375 L 10.453125 -25.484375 L 10.453125 -2.28125 L 14.546875 -2.28125 Z M 14.546875 0 "/></g></g></g><g fill="#ffffff" fill-opacity="1"><g transform="translate(252.996778, 200.249987)"><g><path d="M 18.890625 -12.71875 C 18.890625 -11.09375 18.734375 -9.523438 18.421875 -8.015625 C 18.117188 -6.515625 17.625 -5.171875 16.9375 -3.984375 C 16.257812 -2.796875 15.375 -1.8125 14.28125 -1.03125 C 13.1875 -0.257812 11.863281 0.203125 10.3125 0.359375 C 10.613281 2.097656 11.21875 3.300781 12.125 3.96875 C 13.03125 4.632812 14.359375 4.96875 16.109375 4.96875 C 16.566406 4.96875 16.953125 4.957031 17.265625 4.9375 C 17.585938 4.925781 17.898438 4.910156 18.203125 4.890625 L 18.203125 7.171875 C 17.828125 7.191406 17.46875 7.207031 17.125 7.21875 C 16.78125 7.238281 16.441406 7.25 16.109375 7.25 C 13.453125 7.25 11.453125 6.679688 10.109375 5.546875 C 8.765625 4.410156 7.941406 2.664062 7.640625 0.3125 C 6.203125 0.132812 4.957031 -0.328125 3.90625 -1.078125 C 2.851562 -1.828125 1.988281 -2.78125 1.3125 -3.9375 C 0.644531 -5.101562 0.15625 -6.4375 -0.15625 -7.9375 C -0.476562 -9.445312 -0.640625 -11.039062 -0.640625 -12.71875 C -0.640625 -14.425781 -0.46875 -16.070312 -0.125 -17.65625 C 0.21875 -19.25 0.78125 -20.65625 1.5625 -21.875 C 2.351562 -23.101562 3.367188 -24.082031 4.609375 -24.8125 C 5.859375 -25.550781 7.363281 -25.921875 9.125 -25.921875 C 10.882812 -25.921875 12.382812 -25.550781 13.625 -24.8125 C 14.863281 -24.082031 15.867188 -23.101562 16.640625 -21.875 C 17.410156 -20.65625 17.976562 -19.25 18.34375 -17.65625 C 18.707031 -16.070312 18.890625 -14.425781 18.890625 -12.71875 Z M 16.1875 -12.71875 C 16.1875 -14.007812 16.078125 -15.296875 15.859375 -16.578125 C 15.640625 -17.867188 15.257812 -19.039062 14.71875 -20.09375 C 14.1875 -21.15625 13.457031 -22.007812 12.53125 -22.65625 C 11.613281 -23.3125 10.476562 -23.640625 9.125 -23.640625 C 7.726562 -23.640625 6.578125 -23.3125 5.671875 -22.65625 C 4.765625 -22.007812 4.035156 -21.15625 3.484375 -20.09375 C 2.941406 -19.039062 2.5625 -17.867188 2.34375 -16.578125 C 2.132812 -15.296875 2.03125 -14.007812 2.03125 -12.71875 C 2.03125 -9.332031 2.644531 -6.671875 3.875 -4.734375 C 5.101562 -2.804688 6.851562 -1.84375 9.125 -1.84375 C 11.363281 -1.84375 13.097656 -2.804688 14.328125 -4.734375 C 15.566406 -6.671875 16.1875 -9.332031 16.1875 -12.71875 Z M 16.1875 -12.71875 "/></g></g></g></svg>